<svg xmlns="http://www.w3.org/2000/svg" version="1.1" xmlns:xlink="http://www.w3.org/1999/xlink" width="512" height="512" x="0" y="0" viewBox="0 0 512 512" style="enable-background:new 0 0 512 512" xml:space="preserve" class=""><g><g data-name="Layer 10"><path fill="#57b236" d="M255.48 98.69c-36.27-25.57-106.82-56-185.33-56q-9.27 0-18.68.58c-16.78 1.1-33.61 16.65-36.36 33.65a1141.75 1141.75 0 0 0-7.39 299.92c1.72 15.64 16.32 30 32.64 32.22 74.82 9.76 150.42 29.76 193.21 51.36 3.24 1.63 6.3 3.28 9.15 4.93a29 29 0 0 0 29.13 0q4.29-2.49 9.16-4.94c42.73-21.6 118.16-41.59 193-51.35 16.32-2.22 30.92-16.58 32.64-32.22a1141.75 1141.75 0 0 0-7.39-299.92c-2.74-17-19.58-32.55-36.36-33.67q-9.4-.59-18.68-.58c-78.51 0-148.91 30.46-185.13 56a2.92 2.92 0 0 1-3.61.02z" opacity="1" data-original="#57b236"></path><path fill="#6fba47" d="M121.28 399.4c153.89 0 278.65-124.75 278.65-278.65a279 279 0 0 0-9.77-73.41c-55.88 9.49-103.45 31.85-131.1 51.37a2.92 2.92 0 0 1-3.58 0c-36.27-25.57-106.82-56-185.33-56q-9.27 0-18.68.58c-16.78 1.08-33.61 16.63-36.36 33.63A1141.84 1141.84 0 0 0 7.55 375.2a277.6 277.6 0 0 0 113.73 24.2z" opacity="1" data-original="#6fba47" class=""></path><path fill="#80c955" d="M257.29 99.32a3 3 0 0 1-1.81-.63c-36.27-25.57-106.82-56-185.33-56q-9.27 0-18.68.58c-16.78 1.1-33.61 16.65-36.36 33.65a1141.75 1141.75 0 0 0-7.39 299.92c1.72 15.64 16.32 30 32.64 32.22 74.82 9.76 150.42 29.76 193.21 51.36 3.24 1.63 6.3 3.28 9.15 4.93a29 29 0 0 0 14.56 3.92z" opacity="1" data-original="#80c955" class=""></path></g></g></svg>